<svg width="800" height="800" viewBox="0 0 800 800" fill="none" xmlns="http://www.w3.org/2000/svg">
<path d="M50.0001 400C50.0001 307.174 86.875 218.15 152.513 152.513C218.15 86.8749 307.174 50 400 50C488.133 49.9186 573.052 83.0896 637.795 142.887C702.538 202.684 742.339 284.706 749.247 372.567C756.154 460.429 729.661 547.663 675.058 616.843C620.455 686.023 541.763 732.057 454.7 745.75V501.15H543.5V400H454.65V322.9C454.65 235.2 402.4 186.7 322.45 186.7C284.15 186.7 244.1 193.55 244.1 193.55V279.7H288.25C331.75 279.7 345.25 306.7 345.25 334.35V400H248.2L263.7 501.15H345.3V745.75C262.975 732.713 188.003 690.729 133.871 627.348C79.7382 563.968 49.9982 483.351 50.0001 400Z" fill="#1877F2"/>
<path d="M263.75 501.15L248.25 400H345.3V334.35C345.3 306.7 331.8 279.7 288.3 279.7H244.15V193.5C244.15 193.5 284.2 186.65 322.5 186.65C402.5 186.65 454.7 235.15 454.7 322.85V400H543.5V501.15H454.65V745.75C418.406 751.454 381.494 751.454 345.25 745.75V501.15H263.75Z" fill="white"/>
</svg>
